<svg xmlns="http://www.w3.org/2000/svg" viewBox="170 290 880 200" width="100%" height="100%">
  <!-- Icon: heartbeat/chart waveform -->
  <path d="M 281.31 433.55 C279.65,435.21 278.00,435.45 278.00,434.04 C278.00,433.51 277.09,432.23 275.97,431.19 C274.39,429.71 274.13,428.76 274.82,426.90 C275.30,425.58 282.15,398.62 290.03,367.00 C297.92,335.38 305.03,308.71 305.84,307.75 C307.74,305.49 311.25,305.51 313.31,307.79 C314.20,308.78 315.63,312.71 316.49,316.54 C317.35,320.37 319.38,329.12 321.01,336.00 C322.63,342.88 326.69,360.65 330.03,375.50 C333.37,390.35 336.52,403.51 337.03,404.75 C337.93,406.93 338.40,407.00 351.33,407.00 L 364.70 407.00 L 372.75 397.75 C377.18,392.66 388.25,379.95 397.35,369.51 C411.44,353.34 413.64,350.38 412.20,349.56 C411.26,349.03 406.00,346.94 400.50,344.92 C394.49,342.71 390.50,340.69 390.50,339.87 C390.50,339.07 392.45,338.02 395.18,337.34 C404.61,335.02 438.77,329.70 440.36,330.31 C441.59,330.78 442.00,332.23 442.00,336.07 C442.00,340.78 436.38,376.95 435.51,377.82 C434.69,378.64 433.08,376.80 431.08,372.74 C429.93,370.41 427.52,366.21 425.74,363.41 L 422.50 358.31 L 398.20 385.66 C384.84,400.71 372.71,413.80 371.25,414.76 C367.34,417.33 338.59,417.88 332.38,415.51 C327.53,413.65 327.69,414.00 324.51,398.71 C319.30,373.69 310.95,335.41 310.39,334.00 C309.47,331.68 308.97,333.42 297.46,379.21 C285.11,428.37 283.83,433.16 283.22,432.55 C282.97,432.30 282.11,432.75 281.31,433.55 Z M 269.03 426.47 C267.39,428.44 266.21,428.30 262.35,425.66 C259.85,423.95 258.84,422.16 257.46,417.00 C256.51,413.42 254.61,406.90 253.24,402.51 L 250.76 394.52 L 245.99 404.01 C243.14,409.69 241.81,412.98 239.40,414.90 C236.06,417.56 230.65,417.61 216.26,417.74 C184.88,418.09 184.47,418.07 182.75,415.94 C180.52,413.19 180.55,412.45 183.00,410.00 C184.89,408.11 186.33,408.00 209.03,408.00 L 233.07 408.00 L 238.87 395.75 C242.07,389.01 245.48,381.81 246.46,379.74 C248.59,375.24 252.13,373.90 255.00,376.50 C257.15,378.45 258.69,383.02 265.53,407.72 C269.47,421.93 270.08,425.20 269.03,426.47 Z"
  fill="url(#waveGrad)"/>
  <!-- "Campaign" in dark navy - shown as white on dark bg -->
  <path d="M 505.50 409.56 C501.63,411.43 498.91,411.97 493.50,411.95 C480.76,411.88 472.77,407.33 467.85,397.35 C464.92,391.40 464.75,390.46 465.25,383.12 C466.17,369.83 471.99,360.60 482.78,355.32 C490.53,351.53 504.27,350.81 511.00,353.85 C515.15,355.72 516.93,356.51 517.27,357.72 C517.52,358.61 516.98,359.74 516.03,361.70 L 513.99 365.93 L 510.24 363.71 C507.26,361.95 504.95,361.50 498.84,361.50 C491.93,361.50 490.76,361.80 486.95,364.50 C480.65,368.98 477.50,375.70 477.50,384.67 C477.50,392.66 478.99,395.67 484.95,399.73 C490.17,403.28 494.61,403.65 501.50,401.11 C504.80,399.89 508.25,398.65 509.18,398.35 C510.45,397.94 511.11,398.72 511.90,401.61 C512.66,404.33 511.97,405.85 505.50,409.56 Z M 538.78 410.01 C536.43,411.08 532.32,411.97 529.65,411.98 C525.45,412.00 524.34,411.54 521.40,408.60 C517.39,404.59 516.92,400.28 519.96,395.30 C522.78,390.67 527.13,388.83 536.69,388.24 C544.68,387.74 545.00,387.62 545.00,385.29 C545.00,380.34 543.38,379.00 537.42,379.00 C534.38,379.00 530.56,379.69 528.92,380.54 C525.96,382.07 525.93,382.06 524.53,378.79 L 523.12 375.50 L 526.81 373.80 C531.23,371.78 541.54,370.52 545.91,371.48 C547.64,371.86 550.44,373.34 552.15,374.78 L 555.25 377.39 L 554.54 390.69 C553.93,402.32 554.04,404.08 555.42,404.61 C557.28,405.32 557.51,409.09 555.80,410.80 C554.02,412.58 549.92,412.25 546.28,410.03 C543.09,408.09 543.03,408.09 538.78,410.01 Z M 574.00 409.30 C574.00,401.84 576.45,384.24 577.68,382.84 C579.86,380.37 584.63,378.69 587.45,379.40 C591.68,380.46 592.06,382.61 590.49,396.62 C589.69,403.70 589.03,409.84 589.02,410.25 C589.01,410.66 591.47,411.00 594.50,411.00 C598.54,411.00 600.00,410.63 600.00,409.61 C600.00,406.94 602.02,387.48 602.54,385.22 C603.17,382.44 608.51,379.01 612.23,379.00 C617.04,379.00 618.08,382.07 616.97,393.02 C616.44,398.23 615.73,404.41 615.39,406.75 L 614.77 411.00 L 625.76 411.00 L 627.05 399.25 C629.06,381.07 628.92,377.62 626.11,374.62 C621.81,370.03 612.31,369.94 605.70,374.43 L 602.33 376.72 L 600.11 374.41 C595.94,370.08 588.99,370.10 578.75,374.47 C577.50,375.00 577.00,374.76 577.00,373.61 C577.00,372.35 575.93,372.00 572.00,372.00 C569.25,372.00 567.00,372.13 567.00,372.28 C567.00,372.43 566.11,380.42 565.01,390.03 C562.37,413.28 561.99,411.00 568.50,411.00 C573.01,411.00 574.00,410.69 574.00,409.30 Z M 643.42 426.13 C642.75,427.21 634.30,427.29 633.64,426.23 C633.38,425.80 634.06,418.04 635.15,408.98 C636.25,399.91 637.68,388.00 638.34,382.50 L 639.55 372.50 L 644.52 372.50 C647.97,372.50 649.42,372.88 649.25,373.75 C648.94,375.31 649.02,375.31 653.13,373.60 C654.98,372.83 658.08,372.09 660.00,371.95 C667.76,371.41 670.00,371.97 673.73,375.39 C677.22,378.59 677.44,379.17 677.83,385.94 C678.05,389.88 677.68,395.06 677.02,397.44 C675.50,402.86 670.68,408.82 666.36,410.62 C661.99,412.45 653.22,412.36 649.58,410.46 C645.87,408.53 645.46,409.19 644.62,418.22 C644.26,422.09 643.72,425.64 643.42,426.13 Z M 704.08 409.96 C701.59,411.23 698.14,412.00 694.94,412.00 C690.39,412.00 689.39,411.59 686.27,408.47 C683.04,405.24 682.79,404.57 683.25,400.43 C684.16,392.43 688.98,389.32 702.05,388.32 L 710.00 387.70 L 710.00 384.39 C710.00,382.13 709.38,380.74 708.07,380.04 C705.29,378.55 698.51,378.76 694.47,380.45 C691.05,381.88 690.98,381.86 689.45,378.91 L 687.91 375.93 L 692.57 373.87 C696.39,372.18 698.80,371.87 706.09,372.15 C714.11,372.47 715.21,372.75 717.60,375.14 C720.63,378.18 720.93,381.26 719.57,395.29 C718.81,403.16 718.90,404.21 720.51,405.38 C721.81,406.34 722.12,407.41 721.63,409.34 C721.05,411.64 720.44,412.00 717.12,412.00 C714.76,412.00 712.27,411.21 710.68,409.96 L 708.08 407.92 Z M 738.42 411.13 C739.06,410.10 743.00,378.84 743.00,374.81 C743.00,372.11 742.80,372.00 738.09,372.00 C733.18,372.00 733.18,372.00 732.61,375.75 C729.92,393.65 727.99,410.18 728.50,411.00 C729.26,412.23 737.67,412.34 738.42,411.13 Z M 744.55 362.55 C741.71,365.38 739.35,365.64 736.22,363.44 C733.48,361.52 733.27,356.97 735.83,354.65 C738.51,352.23 743.55,352.53 745.44,355.22 C747.58,358.27 747.41,359.69 744.55,362.55 Z M 777.15 424.93 C773.35,426.86 764.38,428.14 760.00,427.37 C756.77,426.80 749.00,423.97 749.00,423.37 C749.00,421.96 752.21,417.00 753.12,417.00 C753.71,417.00 756.69,417.73 759.74,418.61 C764.28,419.93 766.01,420.01 769.20,419.06 C773.55,417.76 776.99,413.25 777.00,408.86 L 777.00 406.22 L 773.29 408.11 C768.23,410.69 760.70,410.59 756.34,407.90 C746.55,401.85 746.54,384.88 756.32,376.29 C758.32,374.54 761.57,372.80 763.53,372.43 C768.75,371.45 776.74,372.46 778.84,374.35 C781.10,376.40 782.00,376.44 782.00,374.50 C782.00,373.38 783.18,373.00 786.63,373.00 L 791.26 373.00 L 790.59 380.25 C789.43,392.91 786.90,411.39 785.88,414.69 C784.49,419.15 781.43,422.74 777.15,424.93 Z"
  fill="#F0F4FF"/>
  <!-- "Wise" in electric blue -->
  <path d="M 809.31 397.66 L 807.68 410.83 L 802.75 411.16 C800.03,411.35 797.60,411.17 797.36,410.77 C797.11,410.36 797.89,401.70 799.10,391.52 L 801.31 373.00 L 806.65 373.00 C810.77,373.00 812.00,373.35 812.00,374.52 C812.00,375.80 812.64,375.72 815.96,374.02 C821.44,371.23 830.76,371.24 834.33,374.04 C835.76,375.17 837.20,377.54 837.53,379.31 C838.01,381.88 835.48,409.86 834.70,410.63 C834.14,411.18 824.98,411.31 824.44,410.77 C824.10,410.43 824.58,404.45 825.52,397.47 C827.65,381.71 827.16,380.00 820.58,380.00 C817.38,380.00 815.38,380.64 813.52,382.25 C811.18,384.28 810.77,385.77 809.31,397.66 Z M 875.14 394.50 L 869.49 410.50 L 862.74 410.80 C859.04,410.96 856.00,410.94 856.00,410.74 C856.00,410.55 853.75,398.95 851.00,384.95 C848.26,370.95 846.01,358.26 846.00,356.75 C846.00,354.08 846.17,354.00 851.50,354.00 C854.53,354.00 857.00,354.11 857.01,354.25 C857.06,355.84 863.97,393.30 864.27,393.60 C864.61,393.95 868.32,384.22 877.18,359.71 L 879.28 353.91 L 891.46 354.50 L 892.25 359.50 C893.90,369.90 898.26,391.55 898.96,392.86 C899.41,393.68 902.11,387.45 905.88,376.86 C909.29,367.31 912.56,358.26 913.16,356.75 C914.15,354.23 914.68,354.00 919.62,354.00 C922.58,354.00 925.00,354.21 925.00,354.46 C925.00,354.72 922.13,362.70 918.61,372.21 C915.10,381.72 910.49,394.34 908.36,400.25 L 904.50 411.00 L 897.75 411.00 C894.04,411.00 891.00,410.59 891.00,410.09 C891.00,407.84 884.88,376.28 884.10,374.50 C883.83,373.91 883.65,373.44 883.39,373.40 C882.62,373.28 881.26,377.14 875.49,393.48 Z M 937.69 393.50 L 935.50 410.50 L 930.21 410.80 L 924.92 411.11 L 925.53 406.30 C925.87,403.66 926.93,395.20 927.88,387.50 L 929.61 373.50 L 934.80 373.20 C937.58,372.95 938.45,372.87 939.00,373.25 C940.23,374.12 939.81,377.34 938.43,387.85 C938.20,389.54 937.96,391.42 937.69,393.50 Z M 939.78 363.44 C938.56,364.30 936.86,365.00 936.00,365.00 C935.14,365.00 933.44,364.30 932.22,363.44 C926.67,359.56 932.90,351.49 939.51,354.00 C942.90,355.29 943.06,361.14 939.78,363.44 Z M 970.67 410.06 C964.89,412.69 954.98,412.59 948.76,409.85 L 944.03 407.76 L 945.74 404.86 C946.90,402.89 947.94,402.18 948.98,402.63 C949.81,403.00 952.98,403.98 956.01,404.82 C960.82,406.14 961.91,406.15 964.51,404.91 C967.73,403.37 968.91,399.96 966.80,398.30 C966.08,397.74 962.27,396.31 958.32,395.13 C948.07,392.07 944.77,386.99 948.17,379.52 C950.32,374.81 955.36,372.65 964.41,372.57 C969.18,372.53 973.83,373.06 975.75,373.87 C977.67,374.68 978.57,374.99 978.78,375.56 C978.95,376.03 978.66,376.68 977.82,378.49 C977.02,380.24 976.14,380.88 975.07,380.46 C972.40,379.40 963.31,378.71 960.70,379.36 C957.77,380.10 956.50,382.69 958.11,384.64 C958.75,385.40 962.39,386.97 966.22,388.14 C975.40,390.92 978.45,393.57 978.45,398.72 C978.45,403.88 975.82,407.73 970.67,410.06 Z M 1013.50 410.67 C1010.44,411.87 999.71,412.28 997.00,411.30 C987.99,408.04 985.00,404.12 985.00,395.60 C985.00,392.48 985.62,388.45 986.37,386.65 C988.32,381.99 993.89,375.94 997.70,374.35 C1001.62,372.71 1013.30,372.57 1016.32,374.12 C1022.63,377.38 1025.72,383.80 1024.48,391.11 L 1023.82 395.00 L 1009.41 395.00 C997.48,395.00 995.00,395.25 995.00,396.45 C995.00,402.53 1002.11,406.75 1009.27,404.92 C1018.22,402.63 1018.67,402.64 1019.33,405.14 C1019.97,407.61 1019.02,408.51 1013.50,410.67 Z"
  fill="#2563EB"/>
  <defs>
    <linearGradient id="waveGrad" x1="0%" y1="0%" x2="100%" y2="0%">
      <stop offset="0%" style="stop-color:#2563EB"/>
      <stop offset="100%" style="stop-color:#3B82F6"/>
    </linearGradient>
  </defs>
</svg>
