<svg xmlns="http://www.w3.org/2000/svg" width="1254" height="836" viewBox="0 0 1254 836">
<g>
<path d="M 281.31 433.55 C279.65,435.21 278.00,435.45 278.00,434.04 C278.00,433.51 277.09,432.23 275.97,431.19 C274.39,429.71 274.13,428.76 274.82,426.90 C275.30,425.58 282.15,398.62 290.03,367.00 C297.92,335.38 305.03,308.71 305.84,307.75 C307.74,305.49 311.25,305.51 313.31,307.79 C314.20,308.78 315.63,312.71 316.49,316.54 C317.35,320.37 319.38,329.12 321.01,336.00 C322.63,342.88 326.69,360.65 330.03,375.50 C333.37,390.35 336.52,403.51 337.03,404.75 C337.93,406.93 338.40,407.00 351.33,407.00 L 364.70 407.00 L 372.75 397.75 C377.18,392.66 388.25,379.95 397.35,369.51 C411.44,353.34 413.64,350.38 412.20,349.56 C411.26,349.03 406.00,346.94 400.50,344.92 C394.49,342.71 390.50,340.69 390.50,339.87 C390.50,339.07 392.45,338.02 395.18,337.34 C404.61,335.02 438.77,329.70 440.36,330.31 C441.59,330.78 442.00,332.23 442.00,336.07 C442.00,340.78 436.38,376.95 435.51,377.82 C434.69,378.64 433.08,376.80 431.08,372.74 C429.93,370.41 427.52,366.21 425.74,363.41 L 422.50 358.31 L 398.20 385.66 C384.84,400.71 372.71,413.80 371.25,414.76 C367.34,417.33 338.59,417.88 332.38,415.51 C327.53,413.65 327.69,414.00 324.51,398.71 C319.30,373.69 310.95,335.41 310.39,334.00 C309.47,331.68 308.97,333.42 297.46,379.21 C285.11,428.37 283.83,433.16 283.22,432.55 C282.97,432.30 282.11,432.75 281.31,433.55 ZM 875.14 394.50 L 869.49 410.50 L 862.74 410.80 C859.04,410.96 856.00,410.94 856.00,410.74 C856.00,410.55 853.75,398.95 851.00,384.95 C848.26,370.95 846.01,358.26 846.00,356.75 C846.00,354.08 846.17,354.00 851.50,354.00 C854.53,354.00 857.00,354.11 857.01,354.25 C857.06,355.84 863.97,393.30 864.27,393.60 C864.61,393.95 868.32,384.22 877.18,359.71 L 879.28 353.91 L 891.46 354.50 L 892.25 359.50 C893.90,369.90 898.26,391.55 898.96,392.86 C899.41,393.68 902.11,387.45 905.88,376.86 C909.29,367.31 912.56,358.26 913.16,356.75 C914.15,354.23 914.68,354.00 919.62,354.00 C922.58,354.00 925.00,354.21 925.00,354.46 C925.00,354.72 922.13,362.70 918.61,372.21 C915.10,381.72 910.49,394.34 908.36,400.25 L 904.50 411.00 L 897.75 411.00 C894.04,411.00 891.00,410.59 891.00,410.09 C891.00,407.84 884.88,376.28 884.10,374.50 C883.83,373.91 883.65,373.44 883.39,373.40 C882.62,373.28 881.26,377.14 875.49,393.48 ZM 269.03 426.47 C267.39,428.44 266.21,428.30 262.35,425.66 C259.85,423.95 258.84,422.16 257.46,417.00 C256.51,413.42 254.61,406.90 253.24,402.51 L 250.76 394.52 L 245.99 404.01 C243.14,409.69 241.81,412.98 239.40,414.90 C236.06,417.56 230.65,417.61 216.26,417.74 C214.52,417.76 212.66,417.78 210.65,417.80 C184.88,418.09 184.47,418.07 182.75,415.94 C180.52,413.19 180.55,412.45 183.00,410.00 C184.89,408.11 186.33,408.00 209.03,408.00 L 233.07 408.00 L 238.87 395.75 C242.07,389.01 245.48,381.81 246.46,379.74 C248.59,375.24 252.13,373.90 255.00,376.50 C257.15,378.45 258.69,383.02 265.53,407.72 C269.47,421.93 270.08,425.20 269.03,426.47 ZM 1013.50 410.67 C1010.44,411.87 999.71,412.28 997.00,411.30 C987.99,408.04 985.00,404.12 985.00,395.60 C985.00,392.48 985.62,388.45 986.37,386.65 C988.32,381.99 993.89,375.94 997.70,374.35 C1001.62,372.71 1013.30,372.57 1016.32,374.12 C1022.63,377.38 1025.72,383.80 1024.48,391.11 L 1023.82 395.00 L 1009.41 395.00 C997.48,395.00 995.00,395.25 995.00,396.45 C995.00,402.53 1002.11,406.75 1009.27,404.92 C1018.22,402.63 1018.67,402.64 1019.33,405.14 C1019.97,407.61 1019.02,408.51 1013.50,410.67 ZM 970.67 410.06 C964.89,412.69 954.98,412.59 948.76,409.85 L 944.03 407.76 L 945.74 404.86 C946.90,402.89 947.94,402.18 948.98,402.63 C949.81,403.00 952.98,403.98 956.01,404.82 C960.82,406.14 961.91,406.15 964.51,404.91 C967.73,403.37 968.91,399.96 966.80,398.30 C966.08,397.74 962.27,396.31 958.32,395.13 C948.07,392.07 944.77,386.99 948.17,379.52 C950.32,374.81 955.36,372.65 964.41,372.57 C969.18,372.53 973.83,373.06 975.75,373.87 C977.67,374.68 978.57,374.99 978.78,375.56 C978.95,376.03 978.66,376.68 978.08,377.93 C978.00,378.11 977.91,378.29 977.82,378.49 C977.02,380.24 976.14,380.88 975.07,380.46 C972.40,379.40 963.31,378.71 960.70,379.36 C957.77,380.10 956.50,382.69 958.11,384.64 C958.75,385.40 962.39,386.97 966.22,388.14 C975.40,390.92 978.45,393.57 978.45,398.72 C978.45,403.88 975.82,407.73 970.67,410.06 ZM 937.69 393.50 L 935.50 410.50 L 930.21 410.80 L 924.92 411.11 L 925.53 406.30 C925.87,403.66 926.93,395.20 927.88,387.50 L 929.61 373.50 L 934.80 373.20 C935.36,373.17 935.87,373.12 936.33,373.07 C937.58,372.95 938.45,372.87 939.00,373.25 C940.23,374.12 939.81,377.34 938.43,387.85 C938.20,389.54 937.96,391.42 937.69,393.50 ZM 996.60 389.16 C996.88,389.62 1000.93,390.00 1005.59,390.00 C1012.47,390.00 1014.18,389.70 1014.68,388.38 C1015.71,385.71 1013.64,381.60 1010.53,380.10 C1006.25,378.05 1000.34,380.30 997.89,384.91 C996.90,386.79 996.31,388.70 996.60,389.16 ZM 939.78 363.44 C938.56,364.30 936.86,365.00 936.00,365.00 C935.14,365.00 933.44,364.30 932.22,363.44 C926.67,359.56 932.90,351.49 939.51,354.00 C942.90,355.29 943.06,361.14 939.78,363.44 Z" fill="rgb(34,100,196)"/>
<path d="M 777.15 424.93 C773.35,426.86 764.38,428.14 760.00,427.37 C756.77,426.80 749.00,423.97 749.00,423.37 C749.00,421.96 752.21,417.00 753.12,417.00 C753.71,417.00 756.69,417.73 759.74,418.61 C764.28,419.93 766.01,420.01 769.20,419.06 C773.55,417.76 776.99,413.25 777.00,408.86 L 777.00 406.22 L 773.29 408.11 C768.23,410.69 760.70,410.59 756.34,407.90 C746.55,401.85 746.54,384.88 756.32,376.29 C758.32,374.54 761.57,372.80 763.53,372.43 C768.75,371.45 776.74,372.46 778.84,374.35 C781.10,376.40 782.00,376.44 782.00,374.50 C782.00,373.38 783.18,373.00 786.63,373.00 L 791.26 373.00 L 790.59 380.25 C789.43,392.91 786.90,411.39 785.88,414.69 C784.49,419.15 781.43,422.74 777.15,424.93 ZM 643.42 426.13 C642.75,427.21 634.30,427.29 633.64,426.23 C633.38,425.80 634.06,418.04 635.15,408.98 C636.25,399.91 637.68,388.00 638.34,382.50 L 639.55 372.50 L 644.52 372.50 C647.97,372.50 649.42,372.88 649.25,373.75 C648.94,375.31 649.02,375.31 653.13,373.60 C654.98,372.83 658.08,372.09 660.00,371.95 C667.76,371.41 670.00,371.97 673.73,375.39 C677.22,378.59 677.44,379.17 677.83,385.94 C678.05,389.88 677.68,395.06 677.02,397.44 C675.50,402.86 670.68,408.82 666.36,410.62 C661.99,412.45 653.22,412.36 649.58,410.46 C645.87,408.53 645.46,409.19 644.62,418.22 C644.26,422.09 643.72,425.64 643.42,426.13 ZM 574.00 409.30 C574.00,410.69 573.01,411.00 568.50,411.00 C567.91,411.00 567.38,411.02 566.91,411.04 C565.56,411.08 564.64,411.11 564.05,410.68 C562.72,409.72 563.11,406.42 564.36,395.71 C564.55,394.01 564.77,392.12 565.01,390.03 C566.11,380.42 567.00,372.43 567.00,372.28 C567.00,372.13 569.25,372.00 572.00,372.00 C575.93,372.00 577.00,372.35 577.00,373.61 C577.00,374.76 577.50,375.00 578.75,374.47 C588.99,370.10 595.94,370.08 600.11,374.41 L 602.33 376.72 L 605.70 374.43 C612.31,369.94 621.81,370.03 626.11,374.62 C628.92,377.62 629.06,381.07 627.05,399.25 L 625.76 411.00 L 614.77 411.00 L 615.39 406.75 C615.73,404.41 616.44,398.23 616.97,393.02 C618.08,382.07 617.04,379.00 612.23,379.00 C608.51,379.01 603.17,382.44 602.54,385.22 C602.02,387.48 600.00,406.94 600.00,409.61 C600.00,410.63 598.54,411.00 594.50,411.00 C591.47,411.00 589.01,410.66 589.02,410.25 C589.03,409.84 589.69,403.70 590.49,396.62 C592.06,382.61 591.68,380.46 587.45,379.40 C584.63,378.69 579.86,380.37 577.68,382.84 C576.45,384.24 574.00,401.84 574.00,409.30 ZM 505.50 409.56 C501.63,411.43 498.91,411.97 493.50,411.95 C480.76,411.88 472.77,407.33 467.85,397.35 C464.92,391.40 464.75,390.46 465.25,383.12 C466.17,369.83 471.99,360.60 482.78,355.32 C490.53,351.53 504.27,350.81 511.00,353.85 C515.15,355.72 516.93,356.51 517.27,357.72 C517.52,358.61 516.98,359.74 516.03,361.70 L 516.00 361.77 L 513.99 365.93 L 510.24 363.71 C507.26,361.95 504.95,361.50 498.84,361.50 C491.93,361.50 490.76,361.80 486.95,364.50 C480.65,368.98 477.50,375.70 477.50,384.67 C477.50,392.66 478.99,395.67 484.95,399.73 C490.17,403.28 494.61,403.65 501.50,401.11 C504.80,399.89 508.25,398.65 509.18,398.35 C510.45,397.94 511.11,398.72 511.90,401.61 L 511.94 401.74 C512.38,403.35 512.66,404.33 512.39,405.14 C511.97,406.45 510.17,407.30 505.50,409.56 ZM 538.78 410.01 C536.43,411.08 532.32,411.97 529.65,411.98 C525.45,412.00 524.34,411.54 521.40,408.60 C517.39,404.59 516.92,400.28 519.96,395.30 C522.78,390.67 527.13,388.83 536.69,388.24 C544.68,387.74 545.00,387.62 545.00,385.29 C545.00,380.34 543.38,379.00 537.42,379.00 C534.38,379.00 530.56,379.69 528.92,380.54 C525.96,382.07 525.93,382.06 524.53,378.79 L 523.12 375.50 L 526.81 373.80 C531.23,371.78 541.54,370.52 545.91,371.48 C547.64,371.86 550.44,373.34 552.15,374.78 L 555.25 377.39 L 554.54 390.69 C553.93,402.32 554.04,404.08 555.42,404.61 C557.28,405.32 557.51,409.09 555.80,410.80 C554.02,412.58 549.92,412.25 546.28,410.03 C543.09,408.09 543.03,408.09 538.78,410.01 ZM 704.08 409.96 C701.59,411.23 698.14,412.00 694.94,412.00 C690.39,412.00 689.39,411.59 686.27,408.47 C683.04,405.24 682.79,404.57 683.25,400.43 C684.16,392.43 688.98,389.32 702.05,388.32 L 710.00 387.70 L 710.00 384.39 C710.00,382.13 709.38,380.74 708.07,380.04 C705.29,378.55 698.51,378.76 694.47,380.45 C691.05,381.88 690.98,381.86 689.45,378.91 L 687.91 375.93 L 692.57 373.87 C696.39,372.18 698.80,371.87 706.09,372.15 C714.11,372.47 715.21,372.75 717.60,375.14 C720.63,378.18 720.93,381.26 719.57,395.29 C718.81,403.16 718.90,404.21 720.51,405.38 C721.81,406.34 722.12,407.41 721.63,409.34 C721.05,411.64 720.44,412.00 717.12,412.00 C714.76,412.00 712.27,411.21 710.68,409.96 L 708.08 407.92 ZM 809.31 397.66 L 807.68 410.83 L 802.75 411.16 C800.03,411.35 797.60,411.17 797.36,410.77 C797.11,410.36 797.89,401.70 799.10,391.52 L 801.31 373.00 L 806.65 373.00 C810.77,373.00 812.00,373.35 812.00,374.52 C812.00,375.80 812.64,375.72 815.96,374.02 C821.44,371.23 830.76,371.24 834.33,374.04 C835.76,375.17 837.20,377.54 837.53,379.31 C838.01,381.88 835.48,409.86 834.70,410.63 C834.14,411.18 824.98,411.31 824.44,410.77 C824.10,410.43 824.58,404.45 825.52,397.47 C827.65,381.71 827.16,380.00 820.58,380.00 C817.38,380.00 815.38,380.64 813.52,382.25 C811.18,384.28 810.77,385.77 809.31,397.66 ZM 281.31 433.55 C282.11,432.75 282.97,432.30 283.22,432.55 C283.50,432.83 283.93,431.95 285.56,425.95 C279.10,451.01 277.54,455.86 276.30,457.22 C274.26,459.48 271.75,459.49 269.73,457.25 C268.86,456.29 266.75,450.33 265.04,444.00 C262.96,436.31 260.58,427.77 258.40,420.13 C259.40,423.00 260.44,424.35 262.35,425.66 C266.21,428.30 267.39,428.44 269.03,426.47 C269.89,425.42 269.63,423.02 267.30,414.22 C269.02,420.48 270.48,425.88 271.08,428.31 C271.73,430.96 272.61,432.76 273.02,432.31 C273.43,431.87 275.02,426.30 278.38,413.29 C276.34,421.30 275.02,426.34 274.82,426.90 C274.13,428.76 274.39,429.71 275.97,431.19 C277.09,432.23 278.00,433.51 278.00,434.04 C278.00,435.45 279.65,435.21 281.31,433.55 ZM 738.42 411.13 C737.67,412.34 729.26,412.23 728.50,411.00 C727.99,410.18 729.92,393.65 732.61,375.75 C733.18,372.00 733.18,372.00 738.09,372.00 C742.80,372.00 743.00,372.11 743.00,374.81 C743.00,378.84 739.06,410.10 738.42,411.13 ZM 651.52 403.44 C655.42,405.47 656.84,405.40 660.81,402.97 C664.84,400.52 667.00,395.70 667.00,389.17 C667.00,382.18 664.33,379.00 658.44,379.00 C655.01,379.00 653.39,379.61 651.11,381.75 C648.53,384.17 648.11,385.39 647.60,392.00 C646.94,400.33 647.24,401.20 651.52,403.44 ZM 765.02 401.72 C768.21,403.33 769.50,403.31 772.80,401.60 C777.41,399.22 778.78,396.84 779.51,389.90 C780.18,383.53 780.11,383.23 777.47,381.15 C774.08,378.49 770.46,378.42 766.31,380.95 C762.44,383.31 761.14,385.59 760.45,391.21 C759.83,396.23 761.42,399.90 765.02,401.72 ZM 695.61 403.70 C700.84,407.53 709.00,402.81 709.00,395.95 C709.00,394.29 708.30,394.00 704.25,394.01 C701.64,394.02 698.38,394.60 697.00,395.29 C693.83,396.88 693.01,401.81 695.61,403.70 ZM 531.25 403.50 C535.80,406.75 544.00,402.22 544.00,396.44 C544.00,394.16 543.65,394.00 538.72,394.00 C532.57,394.00 529.00,396.02 529.00,399.50 C529.00,400.83 529.99,402.60 531.25,403.50 ZM 744.55 362.55 C741.71,365.38 739.35,365.64 736.22,363.44 C733.48,361.52 733.27,356.97 735.83,354.65 C738.51,352.23 743.55,352.53 745.44,355.22 C747.58,358.27 747.41,359.69 744.55,362.55 ZM 293.82 351.94 C294.07,350.97 294.31,349.99 294.56,349.00 C299.78,328.01 304.69,309.98 305.75,307.91 C304.79,309.93 299.85,328.22 293.82,351.94 ZM 303.64 354.73 C309.22,332.85 309.68,332.19 310.39,334.00 C310.71,334.79 313.46,347.13 316.74,362.23 C313.42,346.99 310.69,334.78 310.36,334.00 C309.70,332.43 308.98,333.99 303.64,354.73 ZM 256.55 413.68 C255.01,408.39 253.67,403.92 252.76,401.06 L 250.71 394.62 L 250.76 394.52 L 253.24 402.51 C254.25,405.75 255.55,410.16 256.55,413.68 ZM 259.88 387.87 C259.01,385.02 258.30,382.90 257.70,381.29 C258.17,382.44 258.62,383.67 258.99,384.90 C259.23,385.70 259.53,386.70 259.88,387.87 ZM 239.40 414.90 C237.94,416.07 236.07,416.73 233.22,417.12 C236.07,416.73 237.93,416.07 239.40,414.90 C240.79,413.80 241.81,412.24 242.98,410.04 C241.82,412.24 240.79,413.80 239.40,414.90 ZM 250.95 375.30 C249.26,375.72 247.64,377.24 246.46,379.74 C247.64,377.23 249.26,375.71 250.95,375.30 Z" fill="rgb(35,47,75)"/>
<path d="M 594.77 468.25 C593.27,472.47 592.24,474.00 590.87,474.00 C589.84,474.00 589.00,473.38 589.00,472.62 C589.00,471.87 587.65,466.86 586.00,461.50 C582.43,449.89 582.29,448.55 584.83,449.91 C586.05,450.56 587.44,453.83 588.95,459.53 C590.21,464.28 591.56,467.79 591.96,467.33 C592.35,466.88 593.76,462.77 595.09,458.22 C597.15,451.16 597.79,449.98 599.50,450.22 C601.09,450.44 602.01,452.28 604.00,459.25 C605.38,464.06 606.73,468.00 607.02,468.00 C607.30,468.00 608.60,464.14 609.91,459.42 C611.95,452.01 613.98,448.65 615.50,450.17 C615.73,450.40 614.29,455.85 612.29,462.29 C609.43,471.53 608.28,474.00 606.87,474.00 C605.60,474.00 604.76,472.76 603.98,469.75 C603.38,467.41 602.09,463.02 601.11,460.00 L 599.33 454.50 L 598.06 458.50 C597.37,460.70 595.89,465.09 594.77,468.25 ZM 532.55 471.55 C529.38,474.72 522.95,474.95 520.00,472.00 C516.99,468.99 517.24,461.67 520.45,458.45 C524.09,454.82 530.33,455.51 533.72,459.91 C535.88,462.73 535.27,468.82 532.55,471.55 ZM 473.00 468.28 C473.00,473.36 472.77,474.00 470.97,474.00 C469.02,474.00 468.95,473.49 469.22,461.75 C469.45,451.65 469.76,449.50 471.00,449.50 C472.08,449.50 472.64,450.98 473.00,454.80 L 473.50 460.10 L 478.46 455.05 C481.19,452.27 484.33,450.00 485.43,450.00 C487.02,450.00 486.32,451.13 482.03,455.47 L 476.63 460.94 L 478.53 463.22 C479.58,464.47 482.23,467.41 484.42,469.75 C487.70,473.24 488.07,474.00 486.49,474.00 C485.43,474.00 481.96,471.43 478.78,468.28 L 473.00 462.56 ZM 550.54 468.75 C548.92,473.76 546.54,475.64 545.48,472.75 C543.22,466.58 541.00,459.44 541.00,458.34 C541.00,457.60 541.59,457.00 542.31,457.00 C543.03,457.00 544.52,459.80 545.64,463.25 L 547.66 469.50 L 549.58 463.51 C552.27,455.12 554.42,454.95 556.64,462.93 C557.57,466.27 558.58,468.75 558.88,468.45 C559.19,468.15 560.14,465.56 561.00,462.71 C561.98,459.46 563.20,457.39 564.26,457.19 C564.38,457.17 564.50,457.14 564.61,457.11 C564.93,457.04 565.18,456.98 565.32,457.08 C565.80,457.39 565.20,459.32 562.68,467.50 C562.42,468.35 562.14,469.26 561.84,470.25 C560.05,476.06 557.68,475.21 555.49,467.97 C554.49,464.65 553.34,462.29 552.95,462.72 C552.56,463.15 551.48,465.86 550.54,468.75 ZM 790.25 473.87 C788.74,473.85 786.38,474.10 785.00,474.42 C781.47,475.26 779.00,473.44 779.00,470.01 C779.00,466.45 782.15,464.00 786.72,464.00 C788.84,464.00 790.00,463.51 790.00,462.62 C790.00,460.12 787.33,458.85 783.58,459.55 C781.40,459.96 780.00,459.83 780.00,459.22 C780.00,456.50 788.96,456.19 791.35,458.83 C792.53,460.14 793.00,462.52 793.00,467.29 C793.00,473.87 792.98,473.92 790.25,473.87 ZM 626.00 467.70 C626.00,472.63 625.67,474.00 624.50,474.00 C623.24,474.00 623.00,471.88 623.00,460.92 C623.00,450.90 623.29,447.93 624.25,448.24 C624.95,448.47 625.63,450.72 625.80,453.33 C626.12,458.09 626.74,458.86 628.70,456.90 C630.25,455.35 635.80,456.76 637.01,459.02 C637.55,460.03 638.00,463.82 638.00,467.43 C638.00,472.60 637.68,474.00 636.50,474.00 C635.33,474.00 635.00,472.63 635.00,467.70 C635.00,461.02 633.96,459.00 630.50,459.00 C627.04,459.00 626.00,461.02 626.00,467.70 ZM 650.88 479.25 C648.30,481.39 645.00,481.54 645.00,479.50 C645.00,478.67 645.84,478.00 646.88,478.00 C647.91,478.00 649.33,477.31 650.02,476.47 C651.07,475.21 650.74,473.54 648.15,466.91 C644.59,457.84 644.45,457.00 646.38,457.00 C647.15,457.00 648.75,459.65 650.00,463.00 C651.23,466.30 652.55,469.00 652.91,469.00 C653.28,469.00 654.44,466.48 655.49,463.39 C657.19,458.39 659.23,455.90 660.54,457.21 C661.45,458.12 652.93,477.54 650.88,479.25 ZM 761.20 468.75 C760.98,472.58 760.50,474.00 759.42,474.00 C758.18,474.00 757.98,472.02 758.22,461.75 L 758.50 449.50 L 765.75 449.49 C770.77,449.48 773.00,449.85 773.00,450.69 C773.00,451.46 770.92,452.01 767.25,452.20 L 761.50 452.50 L 761.40 456.20 L 761.29 459.89 L 766.65 460.56 C773.48,461.42 773.54,462.81 766.75,463.20 L 761.50 463.50 ZM 693.00 468.50 C693.00,472.72 692.65,474.00 691.50,474.00 C690.25,474.00 690.00,472.02 690.00,462.14 L 690.00 450.28 L 696.54 449.61 C703.06,448.94 705.00,449.27 705.00,451.06 C705.00,451.58 702.30,452.00 699.00,452.00 L 693.00 452.00 L 693.00 459.77 L 698.50 460.46 C701.53,460.83 704.00,461.56 704.00,462.07 C704.00,462.58 701.53,463.00 698.50,463.00 L 693.00 463.00 ZM 498.00 467.70 C498.00,472.63 497.67,474.00 496.50,474.00 C495.29,474.00 495.00,472.40 495.00,465.61 C495.00,457.58 495.10,457.21 497.25,457.16 C498.49,457.13 500.92,456.82 502.65,456.46 C505.09,455.95 506.27,456.27 507.90,457.90 C509.63,459.63 510.00,461.22 510.00,467.00 C510.00,472.56 509.69,474.00 508.50,474.00 C507.33,474.00 507.00,472.63 507.00,467.70 C507.00,461.02 505.96,459.00 502.50,459.00 C499.04,459.00 498.00,461.02 498.00,467.70 ZM 811.04 473.98 C808.05,475.58 801.98,474.45 801.21,472.14 C800.88,471.15 801.80,471.00 805.20,471.51 C808.47,472.00 809.93,471.79 810.82,470.72 C812.34,468.89 810.86,467.52 806.32,466.55 C802.27,465.69 800.61,463.68 801.39,460.59 C802.18,457.45 807.54,455.49 811.36,456.95 C815.30,458.44 814.56,459.68 809.78,459.59 C803.68,459.46 803.45,462.14 809.37,464.40 C811.82,465.33 814.09,466.78 814.41,467.62 C815.15,469.56 813.51,472.65 811.04,473.98 ZM 727.34 471.00 C726.37,472.65 724.77,474.00 723.78,474.00 C721.37,474.00 721.50,473.50 725.11,469.02 L 728.22 465.15 L 725.61 461.73 C724.17,459.85 723.00,458.02 723.00,457.66 C723.00,455.99 726.07,457.27 728.02,459.75 L 730.18 462.50 L 732.54 459.75 C733.84,458.24 735.64,457.00 736.54,457.00 C737.82,457.00 737.52,457.89 735.12,461.15 L 732.07 465.30 L 735.03 469.04 C738.38,473.27 738.61,474.00 736.57,474.00 C735.78,474.00 734.17,472.65 733.00,471.00 C731.83,469.35 730.47,468.00 729.99,468.00 C729.51,468.00 728.32,469.35 727.34,471.00 ZM 523.22 470.44 C526.03,472.41 527.45,472.41 529.43,470.43 C533.68,466.18 531.54,459.00 526.01,459.00 C520.89,459.00 518.84,467.38 523.22,470.44 ZM 831.00 473.00 C831.00,474.41 825.65,474.25 824.20,472.80 C823.54,472.14 823.00,469.15 823.00,466.16 C823.00,462.22 822.54,460.38 821.32,459.49 C819.78,458.36 819.82,458.17 821.82,457.10 C823.02,456.45 824.00,455.27 824.00,454.46 C824.00,453.66 824.67,453.00 825.50,453.00 C826.33,453.00 827.00,453.89 827.00,455.00 C827.00,456.33 827.67,457.00 829.00,457.00 C830.10,457.00 831.00,457.45 831.00,458.00 C831.00,458.55 830.10,459.00 829.00,459.00 C827.21,459.00 827.00,459.67 827.00,465.50 C827.00,471.33 827.21,472.00 829.00,472.00 C830.10,472.00 831.00,472.45 831.00,473.00 ZM 715.00 465.50 C715.00,472.39 714.72,474.00 713.50,474.00 C712.28,474.00 712.00,472.39 712.00,465.50 C712.00,458.61 712.28,457.00 713.50,457.00 C714.72,457.00 715.00,458.61 715.00,465.50 ZM 782.67 471.33 C783.75,472.42 787.51,472.09 788.80,470.80 C790.92,468.68 790.24,466.00 787.58,466.00 C786.25,466.00 784.45,466.27 783.58,466.61 C781.99,467.22 781.43,470.10 782.67,471.33 ZM 715.00 450.44 C715.00,451.23 714.58,452.14 714.07,452.46 C712.88,453.19 711.68,451.32 712.50,450.00 C713.42,448.51 715.00,448.79 715.00,450.44 ZM 669.00 472.50 C669.00,473.33 668.33,474.00 667.50,474.00 C666.67,474.00 666.00,473.33 666.00,472.50 C666.00,471.67 666.67,471.00 667.50,471.00 C668.33,471.00 669.00,471.67 669.00,472.50 ZM 841.30 472.51 C840.96,474.25 838.00,474.24 838.00,472.50 C838.00,471.47 838.66,470.98 839.75,471.19 C840.71,471.38 841.41,471.97 841.30,472.51 Z" fill="rgb(144,146,154)"/>
<path d="M 0.00 418.00 L 0.00 0.00 L 627.00 0.00 L 1254.00 0.00 L 1254.00 418.00 L 1254.00 836.00 L 627.00 836.00 L 0.00 836.00 L 0.00 418.00 ZM 650.88 479.25 C652.93,477.54 661.45,458.12 660.54,457.21 C659.23,455.90 657.19,458.39 655.49,463.39 C654.44,466.48 653.28,469.00 652.91,469.00 C652.55,469.00 651.23,466.30 650.00,463.00 C648.75,459.65 647.15,457.00 646.38,457.00 C644.45,457.00 644.59,457.84 648.15,466.91 C650.74,473.54 651.07,475.21 650.02,476.47 C649.33,477.31 647.91,478.00 646.88,478.00 C645.84,478.00 645.00,478.67 645.00,479.50 C645.00,481.54 648.30,481.39 650.88,479.25 ZM 790.25 473.87 C792.98,473.92 793.00,473.87 793.00,467.29 C793.00,462.52 792.53,460.14 791.35,458.83 C788.96,456.19 780.00,456.50 780.00,459.22 C780.00,459.83 781.40,459.96 783.58,459.55 C787.33,458.85 790.00,460.12 790.00,462.62 C790.00,463.51 788.84,464.00 786.72,464.00 C782.15,464.00 779.00,466.45 779.00,470.01 C779.00,473.44 781.47,475.26 785.00,474.42 C786.38,474.10 788.74,473.85 790.25,473.87 ZM 811.04 473.98 C813.51,472.65 815.15,469.56 814.41,467.62 C814.09,466.78 811.82,465.33 809.37,464.40 C803.45,462.14 803.68,459.46 809.78,459.59 C814.56,459.68 815.30,458.44 811.36,456.95 C807.54,455.49 802.18,457.45 801.39,460.59 C800.61,463.68 802.27,465.69 806.32,466.55 C810.86,467.52 812.34,468.89 810.82,470.72 C809.93,471.79 808.47,472.00 805.20,471.51 C801.80,471.00 800.88,471.15 801.21,472.14 C801.98,474.45 808.05,475.58 811.04,473.98 ZM 473.00 468.28 L 473.00 462.56 L 478.78 468.28 C481.96,471.43 485.43,474.00 486.49,474.00 C488.07,474.00 487.70,473.24 484.42,469.75 C482.23,467.41 479.58,464.47 478.53,463.22 L 476.63 460.94 L 482.03 455.47 C486.32,451.13 487.02,450.00 485.43,450.00 C484.33,450.00 481.19,452.27 478.46,455.05 L 473.50 460.10 L 473.00 454.80 C472.64,450.98 472.08,449.50 471.00,449.50 C469.76,449.50 469.45,451.65 469.22,461.75 C468.95,473.49 469.02,474.00 470.97,474.00 C472.77,474.00 473.00,473.36 473.00,468.28 ZM 498.00 467.70 C498.00,461.02 499.04,459.00 502.50,459.00 C505.96,459.00 507.00,461.02 507.00,467.70 C507.00,472.63 507.33,474.00 508.50,474.00 C509.69,474.00 510.00,472.56 510.00,467.00 C510.00,461.22 509.63,459.63 507.90,457.90 C506.27,456.27 505.09,455.95 502.65,456.46 C500.92,456.82 498.49,457.13 497.25,457.16 C495.10,457.21 495.00,457.58 495.00,465.61 C495.00,472.40 495.29,474.00 496.50,474.00 C497.67,474.00 498.00,472.63 498.00,467.70 ZM 532.55 471.55 C535.27,468.82 535.88,462.73 533.72,459.91 C530.33,455.51 524.09,454.82 520.45,458.45 C517.24,461.67 516.99,468.99 520.00,472.00 C522.95,474.95 529.38,474.72 532.55,471.55 ZM 550.54 468.75 C551.48,465.86 552.56,463.15 552.95,462.72 C553.34,462.29 554.49,464.65 555.49,467.97 C557.68,475.21 560.05,476.06 561.84,470.25 C566.27,455.81 566.08,456.84 564.26,457.19 C563.20,457.39 561.98,459.46 561.00,462.71 C560.14,465.56 559.19,468.15 558.88,468.45 C558.58,468.75 557.57,466.27 556.64,462.93 C554.42,454.95 552.27,455.12 549.58,463.51 L 547.66 469.50 L 545.64 463.25 C544.52,459.80 543.03,457.00 542.31,457.00 C541.59,457.00 541.00,457.60 541.00,458.34 C541.00,459.44 543.22,466.58 545.48,472.75 C546.54,475.64 548.92,473.76 550.54,468.75 ZM 594.77 468.25 C595.89,465.09 597.37,460.70 598.06,458.50 L 599.33 454.50 L 601.11 460.00 C602.09,463.02 603.38,467.41 603.98,469.75 C604.76,472.76 605.60,474.00 606.87,474.00 C608.28,474.00 609.43,471.53 612.29,462.29 C614.29,455.85 615.73,450.40 615.50,450.17 C613.98,448.65 611.95,452.01 609.91,459.42 C608.60,464.14 607.30,468.00 607.02,468.00 C606.73,468.00 605.38,464.06 604.00,459.25 C602.01,452.28 601.09,450.44 599.50,450.22 C597.79,449.98 597.15,451.16 595.09,458.22 C593.76,462.77 592.35,466.88 591.96,467.33 C591.56,467.79 590.21,464.28 588.95,459.53 C587.44,453.83 586.05,450.56 584.83,449.91 C582.29,448.55 582.43,449.89 586.00,461.50 C587.65,466.86 589.00,471.87 589.00,472.62 C589.00,473.38 589.84,474.00 590.87,474.00 C592.24,474.00 593.27,472.47 594.77,468.25 ZM 626.00 467.70 C626.00,461.02 627.04,459.00 630.50,459.00 C633.96,459.00 635.00,461.02 635.00,467.70 C635.00,472.63 635.33,474.00 636.50,474.00 C637.68,474.00 638.00,472.60 638.00,467.43 C638.00,463.82 637.55,460.03 637.01,459.02 C635.80,456.76 630.25,455.35 628.70,456.90 C626.74,458.86 626.12,458.09 625.80,453.33 C625.63,450.72 624.95,448.47 624.25,448.24 C623.29,447.93 623.00,450.90 623.00,460.92 C623.00,471.88 623.24,474.00 624.50,474.00 C625.67,474.00 626.00,472.63 626.00,467.70 ZM 669.00 472.50 C669.00,471.67 668.33,471.00 667.50,471.00 C666.67,471.00 666.00,471.67 666.00,472.50 C666.00,473.33 666.67,474.00 667.50,474.00 C668.33,474.00 669.00,473.33 669.00,472.50 ZM 693.00 468.50 L 693.00 463.00 L 698.50 463.00 C701.53,463.00 704.00,462.58 704.00,462.07 C704.00,461.56 701.53,460.83 698.50,460.46 L 693.00 459.77 L 693.00 455.88 L 693.00 452.00 L 699.00 452.00 C702.30,452.00 705.00,451.58 705.00,451.06 C705.00,449.27 703.06,448.94 696.54,449.61 L 690.00 450.28 L 690.00 462.14 C690.00,472.02 690.25,474.00 691.50,474.00 C692.65,474.00 693.00,472.72 693.00,468.50 ZM 715.00 465.50 C715.00,458.61 714.72,457.00 713.50,457.00 C712.28,457.00 712.00,458.61 712.00,465.50 C712.00,472.39 712.28,474.00 713.50,474.00 C714.72,474.00 715.00,472.39 715.00,465.50 ZM 727.34 471.00 C728.32,469.35 729.51,468.00 729.99,468.00 C730.47,468.00 731.83,469.35 733.00,471.00 C734.17,472.65 735.78,474.00 736.57,474.00 C738.61,474.00 738.38,473.27 735.03,469.04 L 732.07 465.30 L 735.12 461.15 C737.52,457.89 737.82,457.00 736.54,457.00 C735.64,457.00 733.84,458.24 732.54,459.75 L 730.18 462.50 L 728.02 459.75 C726.07,457.27 723.00,455.99 723.00,457.66 C723.00,458.02 724.17,459.85 725.61,461.73 L 728.22 465.15 L 725.11 469.02 C721.50,473.50 721.37,474.00 723.78,474.00 C724.77,474.00 726.37,472.65 727.34,471.00 ZM 761.20 468.75 L 761.50 463.50 L 766.75 463.20 C773.54,462.81 773.48,461.42 766.65,460.56 L 761.29 459.89 L 761.40 456.20 L 761.50 452.50 L 767.25 452.20 C770.92,452.01 773.00,451.46 773.00,450.69 C773.00,449.85 770.77,449.48 765.75,449.49 L 758.50 449.50 L 758.22 461.75 C757.98,472.02 758.18,474.00 759.42,474.00 C760.50,474.00 760.98,472.58 761.20,468.75 ZM 831.00 473.00 C831.00,472.45 830.10,472.00 829.00,472.00 C827.21,472.00 827.00,471.33 827.00,465.50 C827.00,459.67 827.21,459.00 829.00,459.00 C830.10,459.00 831.00,458.55 831.00,458.00 C831.00,457.45 830.10,457.00 829.00,457.00 C827.67,457.00 827.00,456.33 827.00,455.00 C827.00,453.89 826.33,453.00 825.50,453.00 C824.67,453.00 824.00,453.66 824.00,454.46 C824.00,455.27 823.02,456.45 821.82,457.10 C819.82,458.17 819.78,458.36 821.32,459.49 C822.54,460.38 823.00,462.22 823.00,466.16 C823.00,469.15 823.54,472.14 824.20,472.80 C825.65,474.25 831.00,474.41 831.00,473.00 ZM 841.30 472.51 C841.41,471.97 840.71,471.38 839.75,471.19 C838.66,470.98 838.00,471.47 838.00,472.50 C838.00,474.24 840.96,474.25 841.30,472.51 ZM 276.30 457.22 C278.05,455.29 280.47,446.38 296.47,383.00 C308.48,335.41 309.47,331.90 310.36,334.00 C310.94,335.38 319.01,372.27 324.51,398.71 C327.69,414.00 327.53,413.65 332.38,415.51 C338.59,417.88 367.34,417.33 371.25,414.76 C372.71,413.80 384.84,400.71 398.20,385.66 L 422.50 358.31 L 425.74 363.41 C427.52,366.21 429.93,370.41 431.08,372.74 C433.08,376.80 434.69,378.64 435.51,377.82 C436.38,376.95 442.00,340.78 442.00,336.07 C442.00,332.23 441.59,330.78 440.36,330.31 C438.77,329.70 404.61,335.02 395.18,337.34 C392.45,338.02 390.50,339.07 390.50,339.87 C390.50,340.69 394.49,342.71 400.50,344.92 C406.00,346.94 411.26,349.03 412.20,349.56 C413.64,350.38 411.44,353.34 397.35,369.51 C388.25,379.95 377.18,392.66 372.75,397.75 L 364.70 407.00 L 351.33 407.00 C338.40,407.00 337.93,406.93 337.03,404.75 C336.52,403.51 333.37,390.35 330.03,375.50 C326.69,360.65 322.63,342.88 321.01,336.00 C319.38,329.12 317.35,320.37 316.49,316.54 C315.63,312.71 314.20,308.78 313.31,307.79 C311.25,305.51 307.73,305.49 305.85,307.75 C305.04,308.71 299.96,327.27 294.56,349.00 C279.41,409.87 273.84,431.43 273.02,432.31 C272.61,432.76 271.73,430.96 271.08,428.31 C269.44,421.65 261.43,392.92 258.99,384.90 C257.88,381.26 256.10,377.50 255.03,376.53 C252.13,373.90 248.60,375.22 246.46,379.74 C245.48,381.81 242.07,389.01 238.87,395.75 L 233.07 408.00 L 209.03 408.00 C186.33,408.00 184.89,408.11 183.00,410.00 C180.55,412.45 180.52,413.19 182.75,415.94 C184.47,418.07 184.88,418.09 210.65,417.80 C241.36,417.45 238.73,418.47 245.97,404.06 L 250.71 394.62 L 252.76 401.06 C255.22,408.79 260.78,428.20 265.04,444.00 C266.75,450.33 268.86,456.29 269.73,457.25 C271.75,459.49 274.26,459.48 276.30,457.22 ZM 715.00 450.44 C715.00,448.79 713.42,448.51 712.50,450.00 C711.68,451.32 712.88,453.19 714.07,452.46 C714.58,452.14 715.00,451.23 715.00,450.44 ZM 777.15 424.93 C781.43,422.74 784.49,419.15 785.88,414.69 C786.90,411.39 789.43,392.91 790.59,380.25 L 791.26 373.00 L 786.63 373.00 C783.18,373.00 782.00,373.38 782.00,374.50 C782.00,376.44 781.10,376.40 778.84,374.35 C776.74,372.46 768.75,371.45 763.53,372.43 C761.57,372.80 758.32,374.54 756.32,376.29 C746.54,384.88 746.55,401.85 756.34,407.90 C760.70,410.59 768.23,410.69 773.29,408.11 L 777.00 406.22 L 777.00 408.86 C776.99,413.25 773.55,417.76 769.20,419.06 C766.01,420.01 764.28,419.93 759.74,418.61 C756.69,417.73 753.71,417.00 753.12,417.00 C752.21,417.00 749.00,421.96 749.00,423.37 C749.00,423.97 756.77,426.80 760.00,427.37 C764.38,428.14 773.35,426.86 777.15,424.93 ZM 643.42 426.13 C643.72,425.64 644.26,422.09 644.62,418.22 C645.46,409.19 645.87,408.53 649.58,410.46 C653.22,412.36 661.99,412.45 666.36,410.62 C670.68,408.82 675.50,402.86 677.02,397.44 C677.68,395.06 678.05,389.88 677.83,385.94 C677.44,379.17 677.22,378.59 673.73,375.39 C670.00,371.97 667.76,371.41 660.00,371.95 C658.08,372.09 654.98,372.83 653.13,373.60 C649.02,375.31 648.94,375.31 649.25,373.75 C649.42,372.88 647.97,372.50 644.52,372.50 L 639.55 372.50 L 638.34 382.50 C637.68,388.00 636.25,399.91 635.15,408.98 C634.06,418.04 633.38,425.80 633.64,426.23 C634.30,427.29 642.75,427.21 643.42,426.13 ZM 505.50 409.56 C513.16,405.85 513.10,405.93 511.90,401.61 C511.11,398.72 510.45,397.94 509.18,398.35 C508.25,398.65 504.80,399.89 501.50,401.11 C494.61,403.65 490.17,403.28 484.95,399.73 C478.99,395.67 477.50,392.66 477.50,384.67 C477.50,375.70 480.65,368.98 486.95,364.50 C490.76,361.80 491.93,361.50 498.84,361.50 C504.95,361.50 507.26,361.95 510.24,363.71 L 513.99 365.93 L 516.00 361.77 C518.26,357.10 518.28,357.14 511.00,353.85 C504.27,350.81 490.53,351.53 482.78,355.32 C471.99,360.60 466.17,369.83 465.25,383.12 C464.75,390.46 464.92,391.40 467.85,397.35 C472.77,407.33 480.76,411.88 493.50,411.95 C498.91,411.97 501.63,411.43 505.50,409.56 ZM 538.78 410.01 C543.03,408.09 543.09,408.09 546.28,410.03 C549.92,412.25 554.02,412.58 555.80,410.80 C557.51,409.09 557.28,405.32 555.42,404.61 C554.04,404.08 553.93,402.32 554.54,390.69 L 555.25 377.39 L 552.15 374.78 C550.44,373.34 547.64,371.86 545.91,371.48 C541.54,370.52 531.23,371.78 526.81,373.80 L 523.12 375.50 L 524.53 378.79 C525.93,382.06 525.96,382.07 528.92,380.54 C530.56,379.69 534.38,379.00 537.42,379.00 C543.38,379.00 545.00,380.34 545.00,385.29 C545.00,387.62 544.68,387.74 536.69,388.24 C527.13,388.83 522.78,390.67 519.96,395.30 C516.92,400.28 517.39,404.59 521.40,408.60 C524.34,411.54 525.45,412.00 529.65,411.98 C532.32,411.97 536.43,411.08 538.78,410.01 ZM 704.08 409.96 L 708.08 407.92 L 710.68 409.96 C712.27,411.21 714.76,412.00 717.12,412.00 C720.44,412.00 721.05,411.64 721.63,409.34 C722.12,407.41 721.81,406.34 720.51,405.38 C718.90,404.21 718.81,403.16 719.57,395.29 C720.93,381.26 720.63,378.18 717.60,375.14 C715.21,372.75 714.11,372.47 706.09,372.15 C698.80,371.87 696.39,372.18 692.57,373.87 L 687.91 375.93 L 689.45 378.91 C690.98,381.86 691.05,381.88 694.47,380.45 C698.51,378.76 705.29,378.55 708.07,380.04 C709.38,380.74 710.00,382.13 710.00,384.39 L 710.00 387.70 L 702.05 388.32 C688.98,389.32 684.16,392.43 683.25,400.43 C682.79,404.57 683.04,405.24 686.27,408.47 C689.39,411.59 690.39,412.00 694.94,412.00 C698.14,412.00 701.59,411.23 704.08,409.96 ZM 738.42 411.13 C739.06,410.10 743.00,378.84 743.00,374.81 C743.00,372.11 742.80,372.00 738.09,372.00 C733.18,372.00 733.18,372.00 732.61,375.75 C729.92,393.65 727.99,410.18 728.50,411.00 C729.26,412.23 737.67,412.34 738.42,411.13 ZM 809.31 397.66 C810.77,385.77 811.18,384.28 813.52,382.25 C815.38,380.64 817.38,380.00 820.58,380.00 C827.16,380.00 827.65,381.71 825.52,397.47 C824.58,404.45 824.10,410.43 824.44,410.77 C824.98,411.31 834.14,411.18 834.70,410.63 C835.48,409.86 838.01,381.88 837.53,379.31 C837.20,377.54 835.76,375.17 834.33,374.04 C830.76,371.24 821.44,371.23 815.96,374.02 C812.64,375.72 812.00,375.80 812.00,374.52 C812.00,373.35 810.77,373.00 806.65,373.00 L 801.31 373.00 L 799.10 391.52 C797.89,401.70 797.11,410.36 797.36,410.77 C797.60,411.17 800.03,411.35 802.75,411.16 L 807.68 410.83 L 809.31 397.66 ZM 970.67 410.06 C975.82,407.73 978.45,403.88 978.45,398.72 C978.45,393.57 975.40,390.92 966.22,388.14 C962.39,386.97 958.75,385.40 958.11,384.64 C956.50,382.69 957.77,380.10 960.70,379.36 C963.31,378.71 972.40,379.40 975.07,380.46 C976.14,380.88 977.02,380.24 977.82,378.49 C979.35,375.14 979.49,375.45 975.75,373.87 C973.83,373.06 969.18,372.53 964.41,372.57 C955.36,372.65 950.32,374.81 948.17,379.52 C944.77,386.99 948.07,392.07 958.32,395.13 C962.27,396.31 966.08,397.74 966.80,398.30 C968.91,399.96 967.73,403.37 964.51,404.91 C961.91,406.15 960.82,406.14 956.01,404.82 C952.98,403.98 949.81,403.00 948.98,402.63 C947.94,402.18 946.90,402.89 945.74,404.86 L 944.03 407.76 L 948.76 409.85 C954.98,412.59 964.89,412.69 970.67,410.06 ZM 1013.50 410.67 C1019.02,408.51 1019.97,407.61 1019.33,405.14 C1018.67,402.64 1018.22,402.63 1009.27,404.92 C1002.11,406.75 995.00,402.53 995.00,396.45 C995.00,395.25 997.48,395.00 1009.41,395.00 L 1023.82 395.00 L 1024.48 391.11 C1025.72,383.80 1022.63,377.38 1016.32,374.12 C1013.30,372.57 1001.62,372.71 997.70,374.35 C993.89,375.94 988.32,381.99 986.37,386.65 C985.62,388.45 985.00,392.48 985.00,395.60 C985.00,404.12 987.99,408.04 997.00,411.30 C999.71,412.28 1010.44,411.87 1013.50,410.67 ZM 574.00 409.30 C574.00,401.84 576.45,384.24 577.68,382.84 C579.86,380.37 584.63,378.69 587.45,379.40 C591.68,380.46 592.06,382.61 590.49,396.62 C589.69,403.70 589.03,409.84 589.02,410.25 C589.01,410.66 591.47,411.00 594.50,411.00 C598.54,411.00 600.00,410.63 600.00,409.61 C600.00,406.94 602.02,387.48 602.54,385.22 C603.17,382.44 608.51,379.01 612.23,379.00 C617.04,379.00 618.08,382.07 616.97,393.02 C616.44,398.23 615.73,404.41 615.39,406.75 L 614.77 411.00 L 620.27 411.00 L 625.76 411.00 L 627.05 399.25 C629.06,381.07 628.92,377.62 626.11,374.62 C621.81,370.03 612.31,369.94 605.70,374.43 L 602.33 376.72 L 600.11 374.41 C595.94,370.08 588.99,370.10 578.75,374.47 C577.50,375.00 577.00,374.76 577.00,373.61 C577.00,372.35 575.93,372.00 572.00,372.00 C569.25,372.00 567.00,372.13 567.00,372.28 C567.00,372.43 566.11,380.42 565.01,390.03 C562.37,413.28 561.99,411.00 568.50,411.00 C573.01,411.00 574.00,410.69 574.00,409.30 ZM 875.14 394.50 C883.16,371.75 883.02,372.06 884.10,374.50 C884.88,376.28 891.00,407.84 891.00,410.09 C891.00,410.59 894.04,411.00 897.75,411.00 L 904.50 411.00 L 908.36 400.25 C910.49,394.34 915.10,381.72 918.61,372.21 C922.13,362.70 925.00,354.72 925.00,354.46 C925.00,354.21 922.58,354.00 919.62,354.00 C914.68,354.00 914.15,354.23 913.16,356.75 C912.56,358.26 909.29,367.31 905.88,376.86 C902.11,387.45 899.41,393.68 898.96,392.86 C898.26,391.55 893.90,369.90 892.25,359.50 L 891.46 354.50 L 885.37 354.21 L 879.28 353.91 L 877.18 359.71 C868.32,384.22 864.61,393.95 864.27,393.60 C863.97,393.30 857.06,355.84 857.01,354.25 C857.00,354.11 854.53,354.00 851.50,354.00 C846.17,354.00 846.00,354.08 846.00,356.75 C846.01,358.26 848.26,370.95 851.00,384.95 C853.75,398.95 856.00,410.55 856.00,410.74 C856.00,410.94 859.04,410.96 862.74,410.80 L 869.49 410.50 L 875.14 394.50 ZM 937.69 393.50 C940.64,370.61 940.95,372.84 934.80,373.20 L 929.61 373.50 L 927.88 387.50 C926.93,395.20 925.87,403.66 925.53,406.30 L 924.92 411.11 L 930.21 410.80 L 935.50 410.50 L 937.69 393.50 ZM 744.55 362.55 C747.41,359.69 747.58,358.27 745.44,355.22 C743.55,352.53 738.51,352.23 735.83,354.65 C733.27,356.97 733.48,361.52 736.22,363.44 C739.35,365.64 741.71,365.38 744.55,362.55 ZM 939.78 363.44 C943.06,361.14 942.90,355.29 939.51,354.00 C932.90,351.49 926.67,359.56 932.22,363.44 C933.44,364.30 935.14,365.00 936.00,365.00 C936.86,365.00 938.56,364.30 939.78,363.44 ZM 782.67 471.33 C781.43,470.10 781.99,467.22 783.58,466.61 C784.45,466.27 786.25,466.00 787.58,466.00 C790.24,466.00 790.92,468.68 788.80,470.80 C787.51,472.09 783.75,472.42 782.67,471.33 ZM 523.22 470.44 C518.84,467.38 520.89,459.00 526.01,459.00 C531.54,459.00 533.68,466.18 529.43,470.43 C527.45,472.41 526.03,472.41 523.22,470.44 ZM 765.02 401.72 C761.42,399.90 759.83,396.23 760.45,391.21 C761.14,385.59 762.44,383.31 766.31,380.95 C770.46,378.42 774.08,378.49 777.47,381.15 C780.11,383.23 780.18,383.53 779.51,389.90 C778.78,396.84 777.41,399.22 772.80,401.60 C769.50,403.31 768.21,403.33 765.02,401.72 ZM 651.52 403.44 C647.24,401.20 646.94,400.33 647.60,392.00 C648.11,385.39 648.53,384.17 651.11,381.75 C653.39,379.61 655.01,379.00 658.44,379.00 C664.33,379.00 667.00,382.18 667.00,389.17 C667.00,395.70 664.84,400.52 660.81,402.97 C656.84,405.40 655.42,405.47 651.52,403.44 ZM 531.25 403.50 C529.99,402.60 529.00,400.83 529.00,399.50 C529.00,396.02 532.57,394.00 538.72,394.00 C543.65,394.00 544.00,394.16 544.00,396.44 C544.00,402.22 535.80,406.75 531.25,403.50 ZM 695.61 403.70 C693.01,401.81 693.83,396.88 697.00,395.29 C698.38,394.60 701.64,394.02 704.25,394.01 C708.30,394.00 709.00,394.29 709.00,395.95 C709.00,402.81 700.84,407.53 695.61,403.70 ZM 996.60 389.16 C996.31,388.70 996.90,386.79 997.89,384.91 C1000.34,380.30 1006.25,378.05 1010.53,380.10 C1013.64,381.60 1015.71,385.71 1014.68,388.38 C1014.18,389.70 1012.47,390.00 1005.59,390.00 C1000.93,390.00 996.88,389.62 996.60,389.16 Z" fill="rgb(252,253,253)"/>
</g>
</svg>